<?xml version="1.0" encoding="UTF-8"?>
<svg width="29px" height="29px" viewBox="0 0 29 29" version="1.1" xmlns="http://www.w3.org/2000/svg" xmlns:xlink="http://www.w3.org/1999/xlink">
    <!-- Generator: Sketch 46.2 (44496) - http://www.bohemiancoding.com/sketch -->
    <title>icon/edit</title>
    <desc>Created with Sketch.</desc>
    <defs></defs>
    <g id="Symbols" stroke="none" stroke-width="1" fill="none" fill-rule="evenodd">
        <g id="icon/edit" fill-rule="nonzero" fill="#282A34">
            <g id="settings">
                <path d="M23.1647827,17.3967176 C22.5871915,17.3967176 22.1539981,17.5415535 21.7208048,17.5415535 L17.5332688,13.3413129 L20.9988158,9.86525179 L25.4751474,8.2720571 L28.7962966,2.91312948 C28.9406944,2.62345772 28.9406944,2.18895008 28.7962966,2.04411419 L27.0635231,0.306083616 C26.7747275,0.0164118534 26.3415341,0.0164118534 26.0527385,0.161247735 L20.5656224,3.34763713 L18.8328489,7.98238533 L15.3673019,11.4584465 L11.4685615,7.25820593 C11.4685615,6.82369828 11.6129593,6.38919064 11.6129593,5.80984711 C11.6129593,2.04411419 8.00301446,-0.707767554 4.39306964,0.161247735 L6.55903653,2.33378596 C7.71421887,3.49247301 7.71421887,5.23050359 6.55903653,6.38919064 C5.40385419,7.54787769 3.67108068,7.54787769 2.51589834,6.38919064 L0.205533653,4.3614883 C-0.949648689,8.56172886 2.94909171,12.6171335 7.2810255,11.3136106 L11.4685615,15.5138512 L9.73578797,17.2518817 C8.72500342,16.96221 7.71421887,17.2518817 6.99222991,17.9760612 L1.07192041,23.9143323 C-0.0832619325,25.0730193 -0.227659725,26.8110499 0.783124824,27.969737 C1.93830717,29.2732599 3.81547847,29.2732599 4.97066081,28.1145729 L11.0353681,22.0314658 C11.7573571,21.3072864 12.0461527,20.1485994 11.7573571,19.2795841 L13.4901306,17.5415535 L17.6776666,21.7417941 C17.5332688,22.1763017 17.5332688,22.7556452 17.5332688,23.1901529 C17.5332688,26.9558858 21.1432136,29.7077676 24.7531584,28.8387523 L22.5871915,26.666214 C21.4320092,25.507527 21.4320092,23.7694964 22.5871915,22.6108094 C23.7423739,21.4521223 25.4751474,21.4521223 26.6303297,22.6108094 L28.7962966,24.7833476 C29.8070812,21.0176147 26.9191253,17.3967176 23.1647827,17.3967176 Z" id="Shape"></path>
            </g>
        </g>
    </g>
</svg>