<?xml version="1.0" encoding="UTF-8"?>
<svg width="364px" height="84px" viewBox="0 0 364 84" version="1.1" xmlns="http://www.w3.org/2000/svg" xmlns:xlink="http://www.w3.org/1999/xlink">
    <!-- Generator: Sketch 46.2 (44496) - http://www.bohemiancoding.com/sketch -->
    <title>icon/logo</title>
    <desc>Created with Sketch.</desc>
    <defs>
        <linearGradient x1="11.5370019%" y1="48.6920063%" x2="1068.463%" y2="135.5001%" id="linearGradient-1">
            <stop stop-color="#00D8C6" offset="0%"></stop>
            <stop stop-color="#00CFCC" offset="27%"></stop>
            <stop stop-color="#00B5DD" offset="71%"></stop>
            <stop stop-color="#00A1EA" offset="100%"></stop>
        </linearGradient>
        <linearGradient x1="32522%" y1="7266.41729%" x2="60372%" y2="8344.44096%" id="linearGradient-2">
            <stop stop-color="#00D8C6" offset="0%"></stop>
            <stop stop-color="#00CFCC" offset="27%"></stop>
            <stop stop-color="#00B5DD" offset="71%"></stop>
            <stop stop-color="#00A1EA" offset="100%"></stop>
        </linearGradient>
        <linearGradient x1="16641.4983%" y1="17249%" x2="30876.6563%" y2="19799%" id="linearGradient-3">
            <stop stop-color="#00D8C6" offset="0%"></stop>
            <stop stop-color="#00CFCC" offset="27%"></stop>
            <stop stop-color="#00B5DD" offset="71%"></stop>
            <stop stop-color="#00A1EA" offset="100%"></stop>
        </linearGradient>
        <linearGradient x1="32568%" y1="411.051847%" x2="60418%" y2="466.631817%" id="linearGradient-4">
            <stop stop-color="#00D8C6" offset="0%"></stop>
            <stop stop-color="#00CFCC" offset="27%"></stop>
            <stop stop-color="#00B5DD" offset="71%"></stop>
            <stop stop-color="#00A1EA" offset="100%"></stop>
        </linearGradient>
        <linearGradient x1="32545%" y1="12749.2814%" x2="60395%" y2="14673.8723%" id="linearGradient-5">
            <stop stop-color="#00D8C6" offset="0%"></stop>
            <stop stop-color="#00CFCC" offset="27%"></stop>
            <stop stop-color="#00B5DD" offset="71%"></stop>
            <stop stop-color="#00A1EA" offset="100%"></stop>
        </linearGradient>
        <linearGradient x1="32598%" y1="403.361795%" x2="60448%" y2="458.832897%" id="linearGradient-6">
            <stop stop-color="#00D8C6" offset="0%"></stop>
            <stop stop-color="#00CFCC" offset="27%"></stop>
            <stop stop-color="#00B5DD" offset="71%"></stop>
            <stop stop-color="#00A1EA" offset="100%"></stop>
        </linearGradient>
        <linearGradient x1="32573%" y1="10335.1854%" x2="60423%" y2="11923.3666%" id="linearGradient-7">
            <stop stop-color="#00D8C6" offset="0%"></stop>
            <stop stop-color="#00CFCC" offset="27%"></stop>
            <stop stop-color="#00B5DD" offset="71%"></stop>
            <stop stop-color="#00A1EA" offset="100%"></stop>
        </linearGradient>
        <linearGradient x1="32626%" y1="3820.96821%" x2="60476%" y2="4424.41778%" id="linearGradient-8">
            <stop stop-color="#00D8C6" offset="0%"></stop>
            <stop stop-color="#00CFCC" offset="27%"></stop>
            <stop stop-color="#00B5DD" offset="71%"></stop>
            <stop stop-color="#00A1EA" offset="100%"></stop>
        </linearGradient>
        <linearGradient x1="32603%" y1="5090.15813%" x2="60453%" y2="5884.25163%" id="linearGradient-9">
            <stop stop-color="#00D8C6" offset="0%"></stop>
            <stop stop-color="#00CFCC" offset="27%"></stop>
            <stop stop-color="#00B5DD" offset="71%"></stop>
            <stop stop-color="#00A1EA" offset="100%"></stop>
        </linearGradient>
        <linearGradient x1="32617%" y1="10740.9621%" x2="60467%" y2="12441.3272%" id="linearGradient-10">
            <stop stop-color="#00D8C6" offset="0%"></stop>
            <stop stop-color="#00CFCC" offset="27%"></stop>
            <stop stop-color="#00B5DD" offset="71%"></stop>
            <stop stop-color="#00A1EA" offset="100%"></stop>
        </linearGradient>
        <linearGradient x1="32672%" y1="3749.05396%" x2="60522%" y2="4359.97285%" id="linearGradient-11">
            <stop stop-color="#00D8C6" offset="0%"></stop>
            <stop stop-color="#00CFCC" offset="27%"></stop>
            <stop stop-color="#00B5DD" offset="71%"></stop>
            <stop stop-color="#00A1EA" offset="100%"></stop>
        </linearGradient>
        <linearGradient x1="32683%" y1="383.734314%" x2="60533%" y2="439.298593%" id="linearGradient-12">
            <stop stop-color="#00D8C6" offset="0%"></stop>
            <stop stop-color="#00CFCC" offset="27%"></stop>
            <stop stop-color="#00B5DD" offset="71%"></stop>
            <stop stop-color="#00A1EA" offset="100%"></stop>
        </linearGradient>
        <linearGradient x1="32659%" y1="11739.2477%" x2="60509%" y2="13653.3029%" id="linearGradient-13">
            <stop stop-color="#00D8C6" offset="0%"></stop>
            <stop stop-color="#00CFCC" offset="27%"></stop>
            <stop stop-color="#00B5DD" offset="71%"></stop>
            <stop stop-color="#00A1EA" offset="100%"></stop>
        </linearGradient>
        <linearGradient x1="32679%" y1="11584.4316%" x2="60529%" y2="13499.4522%" id="linearGradient-14">
            <stop stop-color="#00D8C6" offset="0%"></stop>
            <stop stop-color="#00CFCC" offset="27%"></stop>
            <stop stop-color="#00B5DD" offset="71%"></stop>
            <stop stop-color="#00A1EA" offset="100%"></stop>
        </linearGradient>
        <linearGradient x1="13.728408%" y1="13.7243466%" x2="84.4559656%" y2="84.4307844%" id="linearGradient-15">
            <stop stop-color="#00E89A" offset="0%"></stop>
            <stop stop-color="#00E0A3" offset="20%"></stop>
            <stop stop-color="#00C9BD" offset="54%"></stop>
            <stop stop-color="#00A5E6" offset="96%"></stop>
            <stop stop-color="#00A1EA" offset="100%"></stop>
        </linearGradient>
    </defs>
    <g id="Symbols" stroke="none" stroke-width="1" fill="none" fill-rule="evenodd">
        <g id="icon/logo" fill-rule="nonzero">
            <g id="logo_jukesound-admin_black--text">
                <path d="M127.997875,4 L127.997875,58.1720965 C128.027372,60.7668696 127.749646,63.3558444 127.170664,65.8833822 C126.714436,67.9271506 125.814313,69.8417372 124.535998,71.4873921 C123.289096,73.0183642 121.665171,74.1871332 119.829168,74.8749847 C117.89901,75.627783 115.526294,76.002783 112.711019,75.9999845 C108.114485,75.9999845 104.680181,75.0470929 102.408109,73.1413097 C100.136036,71.2355265 99,68.6021316 99,65.2411248 C99.0144603,64.20579 99.1252471,63.174156 99.3308843,62.1599688 C99.5617244,60.9842754 100.029202,59.8695997 100.704054,58.8857158 C101.442285,57.8149862 102.420385,56.937388 103.557932,56.325082 C104.771174,55.6506418 106.38975,55.3134218 108.413659,55.3134218 C109.072421,55.3201265 109.729519,55.3819026 110.378285,55.4981232 C111.129217,55.6417693 111.831286,55.9785289 112.41736,56.4762014 C113.130183,57.1015635 113.688365,57.888063 114.046965,58.7723762 C114.493659,59.7756409 114.71287,61.1818906 114.71287,62.9701365 C114.102149,62.4245316 113.402312,61.991262 112.644842,61.6898196 C111.975822,61.4776564 111.277636,61.3756178 110.576815,61.3875809 C108.745922,61.3875809 107.473396,61.7891666 106.759237,62.5923381 C106.014781,63.4671044 105.629815,64.5986599 105.683863,65.7532516 C105.683863,67.8101541 106.326331,69.4025045 107.611265,70.5303028 C108.932717,71.667754 110.623515,72.2661925 112.355319,72.2094069 C113.036282,72.2102563 113.712694,72.0967846 114.357169,71.8735861 C115.03571,71.6099779 115.614774,71.1354078 116.011591,70.5177095 C116.558617,69.6676356 116.943072,68.7206401 117.144869,67.7261989 C117.449856,66.1660752 117.588523,64.5771693 117.558475,62.9869276 L117.558475,9.25559588 C115.310257,10.2837978 113.400745,11.9463976 112.057523,14.0452404 C110.678838,16.1777026 109.989496,18.9762095 109.989496,22.4407609 C109.966595,23.6800491 110.091586,24.9175944 110.361741,26.1263945 C110.557836,26.9676875 110.834904,27.7873901 111.188951,28.5736887 C111.420994,29.091298 111.706609,29.5823983 112.040979,30.0387071 C112.251473,30.3010406 112.438345,30.5820184 112.599346,30.8782591 C109.635174,30.8782591 107.29141,30.1786324 105.568054,28.779379 C103.844698,27.3801255 102.980263,25.1721036 102.974748,22.1553132 C102.962563,19.6524956 103.601759,17.1907878 104.8277,15.0191208 C106.081387,12.7885835 107.756846,10.8313482 109.757877,9.25979364 C111.888546,7.58781997 114.280742,6.29086669 116.834665,5.42304074 C119.483251,4.49947125 122.264863,4.02989841 125.065413,4.03358208 L127.997875,4 Z" id="Shape" fill="#1D1D1C"></path>
                <path d="M158.928998,29 L158.928998,49.8249362 C158.928998,51.3798647 159.132244,52.4724797 159.538734,53.1027811 C159.945224,53.7330825 160.678012,54.0496216 161.737099,54.0523982 C163.282868,54.0523982 164.412468,53.5220565 165.1259,52.4613731 C165.864051,51.3196115 166.313941,50.014402 166.436623,48.6587398 L169,48.6587398 C168.676467,51.1577321 168.106828,53.1499843 167.291082,54.6354964 C166.617293,55.9547886 165.683019,57.1224943 164.545199,58.0674459 C163.634612,58.8104767 162.572638,59.3436564 161.434305,59.6293161 C160.494408,59.8605922 159.531578,59.9849357 158.563987,60 C156.365622,60 154.706478,59.4890949 153.586556,58.4672847 C152.393483,57.3143396 151.592373,55.8133437 151.296938,54.1773478 C150.907766,55.3125187 150.306659,56.362792 149.525802,57.2719334 C148.911101,57.9644235 148.18992,58.5535939 147.389655,59.017063 C146.708049,59.4075768 145.96429,59.6767178 145.191289,59.8125756 C144.527124,59.9314699 143.85419,59.9941649 143.179578,60 C140.287138,60 138.200765,59.1420126 136.920459,57.4260379 C135.640153,55.7100631 135,53.4012719 135,50.4996641 L135,29 L143.789313,29 L143.789313,49.8249362 C143.789313,51.3798647 144.002237,52.4724797 144.428083,53.1027811 C144.838536,53.7271033 145.546299,54.0879857 146.290472,54.0523982 C147.406316,54.0456436 148.441625,53.4677477 149.036355,52.5196829 C149.804318,51.3837582 150.189549,50.0306113 150.135537,48.6587398 L150.135537,29 L158.928998,29 Z" id="Shape" fill="#1D1D1C"></path>
                <path d="M190.515464,29.164906 L180.206186,37.5600551 C180.479553,37.5228175 180.755051,37.5034868 181.030928,37.5021861 L181.85567,37.5021861 C182.959897,37.5042792 184.059636,37.6431143 185.129897,37.9155366 C186.136264,38.15749 187.078682,38.6143085 187.892784,39.2547923 C188.711053,39.9232793 189.364423,40.7719909 189.802062,41.7348954 C190.323886,42.9208489 190.573323,44.2091363 190.531959,45.5046522 C190.531959,45.8725342 190.531959,46.3313533 190.503093,46.8728425 C190.474227,47.4143317 190.449485,47.9682214 190.412371,48.5262446 C190.375258,49.0842678 190.338144,49.5885554 190.321649,50.076309 C190.305155,50.5640627 190.28866,50.9484786 190.28866,51.2336905 C190.254915,51.9711186 190.468306,52.6986599 190.894845,53.3004431 C191.307216,53.8295318 192.090722,54.0899426 193.261856,54.0899426 C193.866636,54.1150289 194.469079,54.0004767 195.02268,53.7551287 C195.47159,53.5302579 195.857195,53.1963153 196.14433,52.783755 C196.483603,52.2804144 196.730759,51.7205433 196.874227,51.1303529 C197.05567,50.460725 197.245361,49.658825 197.451546,48.7246528 L200,48.7246528 C199.776623,50.7154952 199.297035,52.6689693 198.573196,54.5363612 C198.079699,55.807926 197.349163,56.9736679 196.420619,57.9713041 C195.68662,58.7346 194.764974,59.2906115 193.748454,59.5833711 C192.800707,59.8505235 191.821596,59.9895371 190.837113,59.9967216 C189.490893,60.0304905 188.150851,59.8031108 186.890722,59.3270938 C184.85147,58.5372292 183.279036,56.8637852 182.614433,54.7761045 C182.265237,53.7375301 182.091033,52.6479135 182.098969,51.5519704 C182.098969,51.0642168 182.098969,50.3739214 182.156701,49.4852178 C182.214433,48.5965142 182.218557,47.7780801 182.218557,47.0505832 C182.263896,45.8873974 182.067289,44.7274798 181.641237,43.6445749 C181.259107,42.7930728 180.419244,42.3673217 179.121649,42.3673217 C177.868041,42.3673217 176.905842,42.7214254 176.235052,43.4296326 C175.549987,44.168205 175.040995,45.0529298 174.746392,46.0172069 L174.746392,59.5792376 L166,59.5792376 L166,18.219384 L174.738144,17 L174.738144,38.4115572 L184.507216,29.164906 L190.515464,29.164906 Z" id="Shape" fill="#1D1D1C"></path>
                <path d="M212.191989,55.7394804 C213.31142,55.7587268 214.426235,55.5904522 215.490789,55.2415464 C216.400395,54.9254851 217.256255,54.4704599 218.028327,53.8924432 C218.792305,53.3129432 219.482614,52.6411587 220.083733,51.8921956 C220.706839,51.1176316 221.30739,50.2919975 221.885385,49.4152932 L224,49.4152932 C223.412763,50.8848432 222.715767,52.3075272 221.914989,53.6711392 C221.107228,55.045855 220.099353,56.2910335 218.924924,57.3652135 C214.904346,60.8466553 209.349661,61.9192187 204.334079,60.1825836 C202.856516,59.6493278 201.523857,58.7747329 200.443187,57.629076 C199.277555,56.3561791 198.410433,54.8364368 197.905649,53.1817169 C197.261388,51.0634336 196.957287,48.8552388 197.004823,46.6404816 C197.024727,44.7007367 197.225795,42.7671695 197.605374,40.8652986 C197.979054,38.8524721 198.683725,36.9164559 199.690384,35.1369299 C200.686138,33.3830301 202.069533,31.8831729 203.733529,30.7534085 C205.425221,29.5844695 207.583538,29 210.20848,29 C212.201857,29 213.737068,29.313514 214.814112,29.940542 C215.779456,30.4612721 216.601796,31.2142237 217.207856,32.1323027 C217.69217,32.8685369 218.011132,33.7021846 218.142516,34.5751583 C218.225615,35.1392928 218.277854,35.7075952 218.298998,36.2774966 C218.335598,37.9832159 217.98407,39.6747678 217.271295,41.2227897 C216.616979,42.6020014 215.685209,43.8294756 214.534983,44.8274913 C213.37741,45.8172372 212.046357,46.5807697 210.610257,47.0788338 C209.155218,47.5951847 207.634148,47.8990202 206.093439,47.9810731 C206.132912,50.7785826 206.599537,52.764644 207.493314,53.9392575 C208.387092,55.113871 209.953317,55.7139453 212.191989,55.7394804 Z M213.498821,36.3711253 C213.498821,34.9156259 213.249297,33.889967 212.750248,33.2856369 C212.378593,32.7526579 211.784908,32.4202345 211.138911,32.3833976 C210.373883,32.4143572 209.663646,32.7912595 209.206153,33.4090564 C208.550148,34.2307028 208.035522,35.1571048 207.68363,36.1498213 C207.204389,37.4533648 206.850336,38.8001068 206.626322,40.1715957 C206.349536,41.7575237 206.172963,43.3595174 206.097668,44.9679342 C207.119109,44.8867227 208.11343,44.5971197 209.020066,44.116765 C209.91844,43.6500528 210.72067,43.0160717 211.384206,42.2484486 C212.056968,41.4658441 212.584168,40.567712 212.940563,39.5970565 C213.320256,38.564912 213.509445,37.4716683 213.498821,36.3711253 L213.498821,36.3711253 Z" id="Shape" fill="#1D1D1C"></path>
                <path d="M248,48.6380813 C246.893455,50.395209 245.550032,51.986149 244.00891,53.3645024 C242.6019,54.5965145 241.293436,55.6408047 240.083517,56.4973729 C239.051099,57.7562872 237.688613,58.6921274 236.154017,59.1963971 C234.70093,59.7094922 233.175607,59.9799799 231.637352,59.997344 C230.045553,60.0313183 228.463338,59.7390512 226.985186,59.1379947 C225.752358,58.627775 224.62433,57.8878054 223.659277,56.9562487 C222.803357,56.1239563 222.125445,55.121389 221.667838,54.0111002 C221.246914,53.0326687 221.02084,51.9792472 221.002657,50.9116025 C220.973089,49.9308464 221.190755,48.9586884 221.63499,48.0874303 C221.988059,47.3777859 222.547018,46.7953434 223.236353,46.4187909 C224.378756,43.4378958 225.357502,40.3949058 226.16808,37.3038483 C226.945661,34.3331686 227.501557,31.3071265 227.831034,28.2514795 L236.531775,27 C237.539128,30.9713618 238.384977,34.1946169 239.06932,36.6697653 C239.753663,39.1449137 240.301138,41.2112455 240.711744,42.8687606 C241.063013,44.3070857 241.337154,45.7637271 241.532956,47.2322526 C241.702077,48.5964679 241.783003,49.9704785 241.775213,51.3454488 L241.775213,51.7125494 C243.09424,50.8025173 244.330936,49.7750324 245.470667,48.6422529 L248,48.6380813 Z M227.999382,49.1929039 C227.998796,49.7943237 227.807279,50.3795099 227.453277,50.8615433 C227.093748,51.3727248 226.502308,51.662154 225.884762,51.6291174 C225.546866,51.6270866 225.210951,51.576527 224.886989,51.4789399 C224.542145,51.3776123 224.248401,51.1463268 224.065777,50.8323421 C224.275594,52.031222 224.808609,53.1474813 225.60555,54.0569878 C226.311792,54.7717216 227.330095,55.1290886 228.660458,55.1290886 C229.741938,55.1572444 230.80248,54.8230089 231.678412,54.1779641 C232.52426,53.5438812 232.947185,52.4314549 232.947185,50.8406853 C232.955402,49.8447794 232.895032,48.8495094 232.766518,47.862164 C232.648811,46.9833473 232.457195,45.9918974 232.19167,44.8878143 C231.932988,43.7823407 231.588079,42.4724588 231.165155,40.9581685 C230.74223,39.4438783 230.228973,37.5416294 229.625382,35.2472502 C229.235231,37.1658069 228.741762,39.0611707 228.147201,40.9247957 C227.561403,42.7463937 226.946862,44.6402995 226.30358,46.6065129 C226.764113,46.8257059 227.167706,47.1514483 227.482019,47.5576373 C227.838934,48.0236614 228.022186,48.6028792 227.999382,49.1929039 L227.999382,49.1929039 Z" id="Shape" fill="#1D1D1C"></path>
                <path d="M257.175174,29 C260.005898,29 262.263505,29.7816891 263.947994,31.3450673 C265.632484,32.9084456 266.720151,35.419197 267.210996,38.8773217 L267.629329,38.8773217 C268.287668,38.8654987 268.941095,38.7596698 269.570397,38.5629467 C270.338856,38.3390924 271.093241,38.0681193 271.829398,37.7515194 C272.617567,37.4163335 273.3785,37.0185934 274.105132,36.5619925 C274.800153,36.1399181 275.459229,35.6596042 276.075483,35.1260636 L277,36.8253878 C276.535734,37.5124951 275.971541,38.1241256 275.326666,38.6394163 C274.608497,39.2083536 273.834707,39.7009078 273.017465,40.1093317 C272.138003,40.5481618 271.227727,40.9201998 270.294114,41.222389 C269.367973,41.5293958 268.42156,41.769319 267.461996,41.9403535 C267.503104,42.221662 267.524076,42.505627 267.524746,42.7900156 L267.524746,43.6396776 C267.538671,45.9203934 267.332705,48.1970161 266.909796,50.4369743 C266.559332,52.3901154 265.860393,54.2617865 264.847411,55.9597778 C263.922526,57.4815765 262.642254,58.7481724 261.12006,59.6473112 C259.404033,60.5940509 257.470437,61.058928 255.518574,60.9940256 C254.042996,61.000618 252.576725,60.7565123 251.180455,60.2718129 C249.790978,59.7860763 248.534975,58.9721373 247.515854,57.8970073 C246.360386,56.644735 245.488069,55.1513768 244.959836,53.5212476 C244.273446,51.3729654 243.950936,49.1219906 244.006035,46.8641452 C244.021294,44.9238328 244.207498,42.9887991 244.562419,41.0821948 C244.918887,39.0527637 245.604505,37.0974721 246.591336,35.295996 C247.572673,33.4908917 248.956663,31.9442751 250.632438,30.7800421 C252.325295,29.5961796 254.506207,29.0028322 257.175174,29 Z M257.237925,55.0676326 C258.074753,55.0775884 258.881787,54.7525082 259.484376,54.1627425 C260.183826,53.4565375 260.720946,52.602077 261.05731,51.6604877 C261.505171,50.4418117 261.804414,49.1720321 261.94836,47.8794914 C262.139413,46.3038294 262.231632,44.7174262 262.22446,43.1298804 L262.22446,42.1910038 C261.198149,41.9814205 260.541365,41.5849115 260.254109,41.0014769 C259.967903,40.3976672 259.824647,39.7342747 259.835776,39.0642473 C259.791534,38.3708979 259.936276,37.6785747 260.254109,37.0632931 C260.509668,36.6330831 260.900053,36.3024602 261.362693,36.1244165 C260.910893,34.7083131 260.367059,33.7920941 259.731192,33.3757597 C259.255182,33.0174655 258.690155,32.8011861 258.099692,32.7512581 C257.170133,32.7635167 256.306264,33.240303 255.790491,34.0257512 C255.091047,35.0131512 254.560684,36.1133313 254.22174,37.279957 C253.790641,38.695461 253.492297,40.1491878 253.330689,41.6217302 C253.150715,43.1372413 253.058523,44.6621768 253.054589,46.1886639 C253.028268,47.7205586 253.168563,49.2507224 253.472923,50.7513493 C253.655528,51.7008609 253.999514,52.61084 254.489473,53.4405297 C254.814591,53.986078 255.284284,54.4277342 255.844874,54.7150229 C256.279094,54.9322549 256.754104,55.0524898 257.237925,55.0676326 Z" id="Shape" fill="#1D1D1C"></path>
                <path d="M295.928998,29 L295.928998,49.8249362 C295.928998,51.3798647 296.132244,52.4724797 296.538734,53.1027811 C296.945224,53.7330825 297.678012,54.0496216 298.737099,54.0523982 C300.285633,54.0523982 301.415233,53.5220565 302.1259,52.4613731 C302.864051,51.3196115 303.313941,50.014402 303.436623,48.6587398 L306,48.6587398 C305.676467,51.1577321 305.106828,53.1499843 304.291082,54.6354964 C303.617293,55.9547886 302.683019,57.1224943 301.545199,58.0674459 C300.634612,58.8104767 299.572638,59.3436564 298.434305,59.6293161 C297.494408,59.8605922 296.531578,59.9849357 295.563987,60 C293.365622,60 291.706478,59.4890949 290.586556,58.4672847 C289.393483,57.3143396 288.592373,55.8133437 288.296938,54.1773478 C287.907766,55.3125187 287.306659,56.362792 286.525802,57.2719334 C285.911101,57.9644235 285.18992,58.5535939 284.389655,59.017063 C283.708049,59.4075768 282.96429,59.6767178 282.191289,59.8125756 C281.527124,59.9314699 280.85419,59.9941649 280.179578,60 C277.287138,60 275.200765,59.1420126 273.920459,57.4260379 C272.640153,55.7100631 272,53.4012719 272,50.4996641 L272,29 L280.789313,29 L280.789313,49.8249362 C280.789313,51.3798647 281.002237,52.4724797 281.428083,53.1027811 C281.838536,53.7271033 282.546299,54.0879857 283.290472,54.0523982 C284.406316,54.0456436 285.441625,53.4677477 286.036355,52.5196829 C286.804318,51.3837582 287.189549,50.0306113 287.135537,48.6587398 L287.135537,29 L295.928998,29 Z" id="Shape" fill="#1D1D1C"></path>
                <path d="M318.827295,41.6653837 C318.827295,39.159597 318.546071,37.3725903 317.983623,36.3043638 C317.421175,35.2361372 316.623904,34.7034445 315.591811,34.7062855 C315.024073,34.6884563 314.466901,34.8640734 314.009926,35.2048859 C313.559104,35.5611895 313.188171,36.0099938 312.921588,36.5217024 C312.61887,37.1082844 312.39068,37.7311342 312.242432,38.3754732 C312.074868,39.0646428 311.970375,39.7679158 311.930273,40.4764134 L311.930273,60.6036766 L303,60.6036766 L303,29.2472501 L311.93871,29.2472501 L311.93871,32.5115913 C312.889247,31.0456209 313.962117,30.0938765 315.15732,29.6563582 C316.245327,29.2381274 317.397536,29.0160003 318.561538,29.0000807 C319.698651,28.9955034 320.828304,29.185706 321.902481,29.5626042 C322.985041,29.9505866 323.952919,30.6087959 324.716129,31.4760366 C325.604594,32.5114414 326.255673,33.7323424 326.622829,35.0514704 C327.123151,36.8345336 327.356341,38.6832358 327.31464,40.536075 C327.31464,41.0815524 327.31464,41.7591376 327.280893,42.5773537 C327.247146,43.3955698 327.230273,44.2180474 327.188089,45.0533096 C327.145906,45.8885719 327.116377,46.7067879 327.095285,47.4994348 C327.074194,48.2920816 327.065757,48.9611437 327.065757,49.5066211 C327.065757,51.3049918 327.251365,52.6530596 327.622581,53.5508245 C327.993797,54.4500099 328.824814,54.8974718 330.107196,54.8974718 C331.511911,54.8974718 332.494789,54.3775636 333.06005,53.3292243 C333.685926,52.0822283 334.134675,50.7523278 334.393052,49.3787748 L337,49.3787748 C336.780001,51.4552243 336.278966,53.4913501 335.510918,55.4301645 C334.992681,56.7332223 334.233969,57.9248784 333.275186,58.9416752 C332.536245,59.7053335 331.617463,60.2669379 330.604963,60.5738458 C329.698211,60.8461912 328.75833,60.9896206 327.812407,61 C324.606452,61 322.28354,59.933194 320.843672,57.7995819 C319.403805,55.6659699 318.685277,52.8249418 318.688089,49.2764978 C318.688089,48.8972206 318.688089,48.3645278 318.717618,47.6784195 C318.747146,46.9923113 318.751365,46.2635876 318.751365,45.5135562 C318.751365,44.7635248 318.751365,44.0390626 318.780893,43.3486928 C318.810422,42.658323 318.827295,42.0830148 318.827295,41.6653837 Z" id="Shape" fill="#1D1D1C"></path>
                <path d="M359.504458,17 L359.504458,49.8820368 C359.504458,51.5867554 359.74136,52.71358 360.215165,53.2625104 C360.688971,53.8114408 361.530045,54.0872853 362.738388,54.0900437 C363.172684,54.1086852 363.605223,54.0249887 364,53.8459214 C363.627124,56.121638 363.10005,57.7160189 362.41878,58.629064 C361.741715,59.5393507 360.534774,59.9986317 358.80216,59.9986317 C356.735921,59.9986317 355.167317,59.4910779 354.096349,58.4759704 C352.96571,57.3584458 352.191099,55.9405773 351.867502,54.3962311 C351.529263,55.1043352 351.137043,55.7862388 350.694204,56.4361007 C350.238108,57.109161 349.685722,57.7139711 349.054109,58.231848 C348.387149,58.7749827 347.634219,59.2068874 346.825262,59.510387 C345.883281,59.8513747 344.88504,60.0169404 343.881501,59.9986317 C342.546971,59.9960662 341.224728,59.7476637 339.983122,59.2662647 C338.651677,58.7429658 337.457202,57.9311845 336.488458,56.891244 C335.343533,55.632515 334.483472,54.1488193 333.965235,52.5384187 C333.273369,50.3839064 332.949367,48.1314344 333.00641,45.8726378 C333.0149,43.9244815 333.2334,41.9827068 333.658243,40.0799045 C334.062623,38.1643176 334.749774,36.3172746 335.697848,34.5974962 C336.588138,32.9773544 337.835311,31.5735477 339.348111,30.4887932 C340.94675,29.3866541 342.863841,28.8207862 344.815094,28.8751032 C345.351861,28.8767096 345.88814,28.9070975 346.421546,28.9661319 C346.999871,29.0220332 347.566671,29.161452 348.103695,29.3798986 C348.638815,29.6213861 349.125857,29.9548653 349.541932,30.3646632 C350.031975,30.8503011 350.393037,31.447119 350.593275,32.1024832 L350.593275,18.2206117 L359.504458,17 Z M347.561202,32.6486552 C346.557007,32.6547246 345.610666,33.1118961 344.99172,33.8899552 C344.221969,34.8086274 343.634262,35.8612587 343.259106,36.9932052 C342.805441,38.3192107 342.484312,39.6855931 342.300282,41.0729445 C342.100711,42.4754275 341.998145,43.8896235 341.99329,45.3057775 C341.937823,46.9958472 342.097465,48.6861058 342.468497,50.3371801 C342.679309,51.2839655 343.09056,52.1764073 343.675438,52.9563231 C344.052335,53.4430387 344.588683,53.7865635 345.193577,53.9286747 C345.641788,54.0221475 346.098028,54.0734102 346.556118,54.0817684 C347.039783,54.0741608 347.515516,53.9596172 347.948096,53.7466174 C348.447362,53.5036527 348.889869,53.1612644 349.247556,52.7411644 C349.665301,52.2504081 349.990064,51.6898198 350.206381,51.0860977 C350.469488,50.3431304 350.594835,49.559709 350.576453,48.7731421 L350.576453,34.9616109 C350.492346,34.8002419 350.391417,34.5892209 350.269461,34.3244102 C350.129561,34.0404907 349.940271,33.7828323 349.710147,33.5630795 C349.445588,33.3078527 349.143655,33.0930681 348.814403,32.9258789 C348.426105,32.7337283 347.995723,32.6385225 347.561202,32.6486552 L347.561202,32.6486552 Z" id="Shape" fill="#1D1D1C"></path>
                <path d="M134.104364,78.9134797 C134.038777,78.8495389 134.001325,78.7630462 134,78.6724596 L134.037571,78.4845456 L138.379127,67.3812798 C138.451112,67.1416852 138.683965,66.9835421 138.93852,67.0013667 L140.06148,67.0013667 C140.315594,66.9851056 140.547546,67.1426362 140.620873,67.3812798 L144.962429,78.4682052 L145,78.6561192 C144.997327,78.7489508 144.954912,78.8364104 144.883112,78.8971393 C144.816744,78.9623099 144.726658,78.9990411 144.632638,78.9992665 L143.797723,78.9992665 C143.69306,79.0044375 143.590237,78.9708981 143.509677,78.9053095 C143.443037,78.8547535 143.392381,78.7867718 143.363567,78.7092253 L142.382543,76.2581733 L136.59241,76.2581733 L135.628083,78.7092253 C135.559301,78.886844 135.383822,79.0029581 135.189753,78.9992665 L134.354839,78.9992665 C134.26289,79.0052648 134.172422,78.9742798 134.104364,78.9134797 Z M137.101708,74.8283929 L141.898292,74.8283929 L139.497913,68.6762523 L137.101708,74.8283929 Z" id="Shape" fill="url(#linearGradient-1)"></path>
                <path d="M146.963804,77.8642613 C146.339926,77.033247 146.00247,76.030613 146,75.0006582 L146,74.5009159 L146,74.0011735 C146.005726,72.9741368 146.346099,71.9754694 146.971937,71.1494691 C147.622936,70.3683859 148.622101,69.9439922 149.651881,70.011167 C150.723232,69.9610566 151.753351,70.4190673 152.417226,71.2406919 L152.417226,67.3974351 C152.409954,67.2902273 152.450458,67.1851716 152.528356,67.1091985 C152.606253,67.0332254 152.71397,66.9937218 152.823894,67.0008142 L153.592497,67.0008142 C153.702421,66.9937218 153.810138,67.0332254 153.888035,67.1091985 C153.965933,67.1851716 154.006437,67.2902273 153.999165,67.3974351 L153.999165,78.4433279 C154.000897,78.5462637 153.961523,78.6458232 153.889365,78.7209625 C153.815078,78.7930255 153.713469,78.8318035 153.608764,78.8280502 L152.872694,78.8280502 C152.770434,78.8315221 152.671445,78.7926166 152.600226,78.7209625 C152.532761,78.6436035 152.496605,78.5448672 152.498559,78.4433279 L152.498559,77.7294102 C151.83517,78.582008 150.779993,79.0564085 149.684415,78.994631 C148.467121,78.994631 147.560251,78.6178411 146.963804,77.8642613 Z M151.766556,76.9242697 C152.171012,76.3900079 152.398076,75.7477922 152.417226,75.0839486 C152.417226,74.9609962 152.417226,74.7507871 152.417226,74.4533214 C152.417226,74.1558557 152.417226,73.9258155 152.417226,73.802863 C152.406141,73.1616544 152.174081,72.5427485 151.758423,72.0458323 C151.315667,71.5417617 150.656576,71.2687885 149.977216,71.3081174 C149.288702,71.2510125 148.616247,71.5320871 148.183809,72.057731 C147.77899,72.6433555 147.564956,73.3345676 147.56974,74.0408356 L147.56974,74.5207469 C147.56974,76.6519234 148.383076,77.7175116 150.009749,77.7175116 C150.692899,77.7480923 151.348472,77.4520846 151.766556,76.9242697 Z" id="Shape" fill="url(#linearGradient-2)"></path>
                <path d="M158.114038,78.8781905 C158.040144,78.8017911 157.999822,78.700562 158.001596,78.5958999 L158.001596,70.5788479 C157.991228,70.4691221 158.031762,70.3606107 158.11222,70.2826988 C158.192679,70.2047869 158.304738,70.1655361 158.41805,70.1755756 L159.15101,70.1755756 C159.25707,70.1714019 159.359984,70.2109713 159.4342,70.2844591 C159.504068,70.3610824 159.541281,70.4605391 159.538313,70.562717 L159.538313,71.1393963 C160.152184,70.3891252 161.099295,69.9680242 162.087016,70.0062013 C163.239577,69.9308857 164.322092,70.5470319 164.814794,71.5587994 C165.098722,71.0823584 165.512115,70.6904193 166.010018,70.4256044 C166.543518,70.1489874 167.141603,70.0101016 167.746634,70.0223322 C168.632234,69.9923308 169.487166,70.3385044 170.087109,70.9700219 C170.695133,71.5991266 170.999145,72.5145546 170.999145,73.7082404 L170.999145,78.5958999 C171.006592,78.7049056 170.965113,78.8117231 170.885341,78.8889702 C170.805569,78.9662174 170.695259,79.0063835 170.58269,78.9991722 L169.833072,78.9991722 C169.720503,79.0063835 169.610194,78.9662174 169.530422,78.8889702 C169.45065,78.8117231 169.40917,78.7049056 169.416617,78.5958999 L169.416617,73.8614839 C169.416617,72.9581541 169.225048,72.3129185 168.84191,71.9257771 C168.444526,71.5298666 167.891468,71.3171131 167.321851,71.3410324 C166.775614,71.3360207 166.252491,71.5541655 165.880918,71.941908 C165.478345,72.3424918 165.277058,72.9823504 165.277058,73.8614839 L165.277058,78.5958999 C165.278832,78.700562 165.23851,78.8017911 165.164616,78.8781905 C165.086762,78.948776 164.983911,78.9877484 164.877262,78.987074 L164.106821,78.987074 C163.999596,78.9908903 163.895541,78.951462 163.819467,78.8781905 C163.744053,78.8024291 163.702207,78.7011248 163.70286,78.5958999 L163.70286,73.8614839 C163.70286,72.968908 163.502961,72.3263609 163.103165,71.9338426 C162.711962,71.5430261 162.170008,71.3281362 161.608093,71.3410324 C161.063532,71.3359225 160.541392,71.5507347 160.16716,71.9338426 C159.750705,72.3371148 159.563301,72.9662195 159.563301,73.845353 L159.563301,78.5958999 C159.565074,78.700562 159.524752,78.8017911 159.450858,78.8781905 C159.374784,78.951462 159.270729,78.9908903 159.163504,78.987074 L158.393063,78.987074 C158.288703,78.9886687 158.188096,78.9494089 158.114038,78.8781905 Z" id="Shape" fill="url(#linearGradient-3)"></path>
                <path d="M172.121886,68.54784 C172.04006,68.4749676 171.996028,68.375292 172.00029,68.2725798 L172.00029,67.4029171 C171.995984,67.2966453 172.039756,67.193249 172.121886,67.1156891 C172.205769,67.0419895 172.318988,67.0004407 172.437133,67 L173.549508,67 C173.798231,67 173.999862,67.1786061 173.999862,67.3989278 L173.999862,68.2685905 C174.002912,68.37269 173.955347,68.472937 173.869259,68.5438507 C173.781701,68.6166017 173.664976,68.6553753 173.545004,68.6515612 L172.43263,68.6515612 C172.317915,68.6533123 172.20677,68.6162142 172.121886,68.54784 Z M172.275006,78.8920388 C172.195096,78.8164624 172.151492,78.7163238 172.15341,78.6127893 L172.15341,70.6821039 C172.142199,70.5735602 172.186032,70.4662178 172.27304,70.3891452 C172.360048,70.3120726 172.481228,70.2732447 172.603764,70.2831761 L173.441423,70.2831761 C173.563959,70.2732447 173.685139,70.3120726 173.772147,70.3891452 C173.859155,70.4662178 173.902989,70.5735602 173.891777,70.6821039 L173.891777,78.6127893 C173.893695,78.7163238 173.850091,78.8164624 173.770181,78.8920388 C173.687915,78.9645209 173.57539,79.0035245 173.459437,78.9997493 L172.58575,78.9997493 C172.469797,79.0035245 172.357272,78.9645209 172.275006,78.8920388 L172.275006,78.8920388 Z" id="Shape" fill="url(#linearGradient-4)"></path>
                <path d="M177.113355,78.8896039 C177.039903,78.8129556 176.999823,78.7113967 177.001586,78.6063937 L177.001586,70.5632222 C176.99128,70.4531389 177.031571,70.344274 177.111548,70.2661082 C177.191525,70.1879425 177.302913,70.1485638 177.415547,70.1586361 L178.156537,70.1586361 C178.271087,70.1401679 178.387722,70.1768032 178.469816,70.257038 C178.55191,70.3372728 178.589394,70.4512661 178.570498,70.5632222 L178.570498,71.3117064 C178.898067,70.9091918 179.308463,70.578386 179.775124,70.3406998 C180.312399,70.1015447 180.898844,69.9866351 181.488922,70.0048934 C182.468635,69.9516206 183.420194,70.3355288 184.076177,71.0487255 C184.717303,71.8262048 185.044295,72.8065578 184.995171,73.8039568 L184.995171,78.6063937 C184.996934,78.7113967 184.956853,78.8129556 184.883401,78.8896039 C184.806014,78.9604194 184.703778,78.9995188 184.597768,78.9988422 L183.798824,78.9988422 C183.686561,79.0074644 183.576065,78.967616 183.496439,78.8897931 C183.416812,78.8119703 183.376041,78.703976 183.384863,78.5942561 L183.384863,73.9051033 C183.42838,73.2209002 183.211659,72.5451135 182.77634,72.0075945 C182.332097,71.5377385 181.695152,71.2881359 181.041844,71.3278899 C180.377305,71.2960961 179.731201,71.5469144 179.270092,72.0156862 C178.806412,72.5374009 178.568845,73.2150951 178.607754,73.9051033 L178.607754,78.6063937 C178.609517,78.7113967 178.569437,78.8129556 178.495985,78.8896039 C178.420366,78.9631141 178.316935,79.0026709 178.210352,78.9988422 L177.411407,78.9988422 C177.300585,79.0061574 177.19193,78.9663347 177.113355,78.8896039 Z" id="Shape" fill="url(#linearGradient-5)"></path>
                <path d="M187.121873,68.5462897 C187.040056,68.473496 186.996029,68.3739281 187.00029,68.2713269 L187.00029,67.402604 C186.995985,67.296447 187.039752,67.1931624 187.121873,67.1156863 C187.201921,67.039511 187.315079,66.9974237 187.432586,67.0001222 L188.549352,67.0001222 C188.669045,66.9995098 188.784089,67.0410931 188.869071,67.1156863 C188.95448,67.1918642 189.001561,67.2953058 188.99966,67.402604 L188.99966,68.2713269 C189.004539,68.375612 188.956671,68.4764007 188.869071,68.5462897 C188.782638,68.6179721 188.667768,68.6566289 188.549352,68.6538838 L187.432586,68.6538838 C187.316645,68.6576548 187.204131,68.6186935 187.121873,68.5462897 L187.121873,68.5462897 Z M187.270475,78.8793106 C187.190574,78.8038158 187.146974,78.7037855 187.148892,78.6003629 L187.148892,70.6782473 C187.144631,70.5756461 187.188658,70.4760782 187.270475,70.4032845 C187.355786,70.3325763 187.468822,70.2939931 187.585691,70.2956904 L188.414259,70.2956904 C188.531128,70.2939931 188.644165,70.3325763 188.729475,70.4032845 C188.811293,70.4760782 188.85532,70.5756461 188.851058,70.6782473 L188.851058,78.6003629 C188.860655,78.7084313 188.816303,78.8148003 188.729686,78.8914518 C188.643068,78.9681034 188.522869,79.007352 188.40075,78.9988596 L187.572182,78.9988596 C187.458124,78.9942987 187.350281,78.951567 187.270475,78.8793106 Z" id="Shape" fill="url(#linearGradient-6)"></path>
                <path d="M192.563387,78.6015359 C192.112092,78.4128403 191.710616,78.1195368 191.39111,77.745115 C191.181204,77.5295745 191.044347,77.2518453 191.000351,76.9521328 C190.995685,76.8528486 191.037738,76.7572102 191.113671,76.6944136 C191.182939,76.6361686 191.269891,76.6039584 191.35985,76.6032206 L192.098384,76.6032206 C192.152203,76.6013726 192.205709,76.6122308 192.254688,76.6349399 C192.313006,76.678074 192.365548,76.728721 192.410991,76.7856065 C192.644747,77.0814249 192.931026,77.3302149 193.255031,77.5191151 C193.644788,77.7123558 194.07597,77.8036734 194.509368,77.7847642 C195.003395,77.8084467 195.494268,77.69319 195.927823,77.4517116 C196.26841,77.2564715 196.473361,76.8849007 196.459256,76.4882382 C196.472348,76.2439894 196.389437,76.004442 196.228708,75.8221331 C196.011629,75.6158938 195.751015,75.4626564 195.466727,75.3740981 C194.955105,75.1960639 194.43309,75.0504041 193.903691,74.9379578 C193.161761,74.8277799 192.464111,74.5122501 191.887374,74.0260282 C191.489321,73.6149643 191.275871,73.0555851 191.297328,72.4797128 C191.299414,72.0559994 191.42445,71.6422945 191.656826,71.2902394 C191.921723,70.8834626 192.294121,70.5605629 192.731414,70.3584853 C193.261949,70.1081896 193.842431,69.9860473 194.427308,70.0016433 C195.032944,69.9843647 195.634823,70.1035273 196.189632,70.3505555 C196.61134,70.5340562 196.986707,70.8119176 197.287665,71.1633623 C197.49224,71.3798428 197.621261,71.6583831 197.654978,71.9563445 C197.658525,72.0514518 197.619794,72.1431484 197.549473,72.206134 C197.481111,72.2720401 197.389748,72.3076951 197.29548,72.3052567 L196.670265,72.3052567 C196.535891,72.3159603 196.408214,72.2441619 196.345935,72.1228708 C196.158371,71.9114089 196.002067,71.7488475 195.877025,71.6351867 C195.717109,71.4975267 195.53085,71.3949314 195.329962,71.3338535 C195.037521,71.2440281 194.732742,71.2025271 194.427308,71.2109412 C193.990965,71.1816296 193.557545,71.301696 193.196417,71.5519236 C192.917788,71.7648654 192.758858,72.1021809 192.77049,72.4559234 C192.762704,72.6678245 192.826082,72.8761255 192.950239,73.0466952 C193.137106,73.2542782 193.374179,73.4087229 193.637975,73.4947301 C194.128598,73.6773622 194.633034,73.8192442 195.146305,73.9189756 C195.950722,74.0354152 196.711512,74.3619571 197.354094,74.8665894 C197.783706,75.2766221 198.018608,75.8544357 197.998846,76.452554 C198.006322,76.9156876 197.869576,77.369405 197.608087,77.74908 C197.30595,78.1660438 196.890357,78.4843779 196.412364,78.6649745 C195.809499,78.900519 195.166922,79.0136765 194.521091,78.998027 C193.84733,79.0182585 193.177864,78.8826725 192.563387,78.6015359 Z" id="Shape" fill="url(#linearGradient-7)"></path>
                <path d="M201.756092,76.0309889 L201.756092,71.5034873 L200.381575,71.5034873 C200.278177,71.5075684 200.177691,71.4696296 200.104188,71.3987586 C200.031979,71.3271083 199.994368,71.2290385 200.000685,71.1288808 L200.000685,70.5891253 C199.997735,70.4870664 200.034729,70.3877256 200.104188,70.3111915 C200.176081,70.2375412 200.277282,70.1978627 200.381575,70.2024348 L201.756092,70.2024348 L201.756092,67.3828164 C201.752923,67.2845663 201.78679,67.18858 201.851314,67.1129386 C201.92278,67.0382499 202.023863,66.9971499 202.128702,67.0001539 L202.894622,67.0001539 C203.001217,67.0005669 203.103541,67.0409655 203.180289,67.1129386 C203.255512,67.1865188 203.29599,67.2871626 203.292072,67.3908724 L203.292072,70.2104908 L205.44493,70.2104908 C205.551525,70.206679 205.65497,70.2460614 205.730597,70.3192476 C205.808667,70.3912658 205.850932,70.492599 205.84652,70.5971814 L205.84652,71.1409649 C205.852522,71.2434699 205.809781,71.3429737 205.730597,71.4108427 C205.652563,71.479881 205.550387,71.5173395 205.44493,71.5155714 L203.292072,71.5155714 L203.292072,75.9222322 C203.262077,76.373254 203.360948,76.8235549 203.57774,77.2232847 C203.799071,77.5315791 204.174319,77.6994895 204.558946,77.6623395 L205.618814,77.6623395 C205.723653,77.6593355 205.824736,77.7004356 205.896202,77.7751243 C205.96566,77.8516583 206.002655,77.9509992 205.999705,78.0530581 L205.999705,78.6089257 C206.003721,78.7123605 205.966657,78.8133299 205.896202,78.8908876 C205.824308,78.9645379 205.723107,79.0042164 205.618814,78.9996443 L204.438883,78.9996443 C202.647595,78.9915882 201.753332,78.0020364 201.756092,76.0309889 Z" id="Shape" fill="url(#linearGradient-8)"></path>
                <path d="M207.115205,78.887453 C207.038432,78.8115217 206.996739,78.7068213 207.0002,78.5986531 L207.0002,70.4132366 C206.998473,70.3041623 207.039824,70.1988407 207.115205,70.120311 C207.18724,70.0400516 207.291124,69.996195 207.398612,70.0006653 L208.121504,70.0006653 C208.233724,69.9944626 208.343572,70.0347217 208.425447,70.1120595 C208.501388,70.1932892 208.541388,70.3019205 208.536345,70.4132366 L208.536345,71.1764937 C209.004582,70.3926081 209.805514,70.0006653 210.930926,70.0006653 L211.600423,70.0006653 C211.708689,69.9944848 211.814995,70.0315618 211.896151,70.1038081 C211.969947,70.1825514 212.007233,70.2889196 211.998835,70.3967338 L211.998835,71.0362194 C212.001762,71.1407535 211.96506,71.2425035 211.896151,71.3208937 C211.819546,71.4016046 211.711187,71.443933 211.600423,71.4364137 L210.635197,71.4364137 C210.084924,71.4071092 209.54699,71.6071248 209.148339,71.9892594 C208.771623,72.3967437 208.574645,72.9397419 208.602063,73.4951449 L208.602063,78.5986531 C208.606042,78.7077353 208.562562,78.8131566 208.48295,78.887453 C208.404113,78.9616673 208.299338,79.0016894 208.191329,78.9988473 L207.415041,78.9988473 C207.303689,79.0075316 207.194132,78.966829 207.115205,78.887453 L207.115205,78.887453 Z" id="Shape" fill="url(#linearGradient-9)"></path>
                <path d="M214.426344,78.6635652 C214.00764,78.4613207 213.646468,78.1478367 213.378542,77.7541113 C213.12573,77.3826348 212.99314,76.9357839 213.000273,76.4792873 C212.991318,75.7688052 213.311491,75.0979899 213.858942,74.6802366 C214.547565,74.1664481 215.349479,73.8452591 216.189074,73.7469543 L218.56838,73.3974698 L218.56838,72.9169287 C218.56838,71.7731614 217.937933,71.2012777 216.677039,71.2012777 C216.266,71.1796536 215.858039,71.2860416 215.504408,71.5070766 C215.230969,71.6857344 215.006699,71.9362529 214.853787,72.2338454 C214.828911,72.3197992 214.781763,72.3967993 214.717611,72.4562446 C214.660489,72.4991916 214.591044,72.5202233 214.520911,72.5158158 L213.900552,72.5158158 C213.708353,72.5158158 213.552545,72.3522341 213.552545,72.1504457 C213.577908,71.8234365 213.696547,71.5120418 213.892986,71.2568775 C214.170297,70.8762755 214.53281,70.5734321 214.948354,70.3752235 C215.49415,70.1103744 216.091179,69.9825635 216.69217,70.0019106 C217.879932,70.0019106 218.727253,70.2878524 219.241697,70.8676789 C219.75319,71.4578891 220.024686,72.2346286 219.998233,73.0320997 L219.998233,78.4451374 C219.999845,78.5482083 219.96322,78.6478984 219.896101,78.7231364 C219.827003,78.7952939 219.732489,78.8341228 219.635096,78.8303646 L218.9353,78.8303646 C218.840011,78.8348724 218.747547,78.7957516 218.68186,78.7231364 C218.617488,78.6466688 218.583624,78.5471184 218.587293,78.4451374 L218.587293,77.7143972 C218.326617,78.1048128 217.976738,78.4202568 217.569752,78.6317939 C217.034581,78.8955892 216.446985,79.0208786 215.856198,78.997164 C215.361608,79.0016687 214.872567,78.8875704 214.426344,78.6635652 L214.426344,78.6635652 Z M217.89128,77.0749995 C218.369199,76.5026278 218.608956,75.7531919 218.557032,74.9939784 L218.557032,74.5253515 L216.703518,74.8112933 C216.094702,74.8693781 215.504382,75.0615349 214.97105,75.3752341 C214.620781,75.5798658 214.399322,75.9633269 214.38845,76.3840176 C214.377578,76.8047083 214.578907,77.2002128 214.918093,77.4244839 C215.293325,77.6771215 215.73211,77.8057795 216.177726,77.7938254 C216.823028,77.8106171 217.445167,77.5409822 217.89128,77.051171 L217.89128,77.0749995 Z" id="Shape" fill="url(#linearGradient-10)"></path>
                <path d="M223.756186,76.032998 L223.756186,71.5085601 L222.382798,71.5085601 C222.279998,71.5131944 222.179956,71.4752442 222.107188,71.4040099 C222.034421,71.3327756 221.995654,71.234841 222.000388,71.1342072 L222.000388,70.5948169 C221.998583,70.4922836 222.036822,70.3929418 222.107298,70.3170711 C222.178385,70.2430143 222.279121,70.2032745 222.382798,70.208388 L223.74385,70.208388 L223.74385,67.3906776 C223.74092,67.2886878 223.777663,67.1894141 223.846648,67.1129319 C223.918898,67.0376615 224.020817,66.9965789 224.12626,67.0002234 L224.882857,67.0002234 C225.109953,67.0002234 225.294051,67.1804423 225.294051,67.4027535 L225.294051,70.2204639 L227.432259,70.2204639 C227.54414,70.2104428 227.654783,70.2496214 227.734225,70.3273899 C227.813668,70.4051584 227.85369,70.5134702 227.843453,70.622994 L227.843453,71.1462831 C227.848677,71.247776 227.808081,71.3463897 227.732431,71.4159782 C227.654927,71.4849698 227.553447,71.5224029 227.448707,71.520636 L225.310499,71.520636 L225.310499,75.9243149 C225.280707,76.3750315 225.378905,76.8250277 225.594222,77.224487 C225.814047,77.5325727 226.186742,77.7003696 226.568752,77.6632447 L227.621408,77.6632447 C227.725533,77.6602427 227.825928,77.701315 227.896908,77.7759531 C227.965894,77.8524354 228.002637,77.9517091 227.999707,78.0536989 L227.999707,78.6091904 C228.003696,78.7125551 227.966884,78.8134562 227.896908,78.8909614 C227.825504,78.9645619 227.724991,79.0042135 227.621408,78.9996445 L226.445394,78.9996445 C224.65533,78.9915939 223.758927,78.0027117 223.756186,76.032998 Z" id="Shape" fill="url(#linearGradient-11)"></path>
                <path d="M230.126437,68.5477042 C230.041517,68.4763906 229.995543,68.3760489 230.000341,68.2724899 L230.000341,67.4029723 C229.997243,67.2961503 230.042668,67.1926941 230.126437,67.1157921 C230.20649,67.0395471 230.319658,66.9974214 230.437174,67.0001224 L231.549519,67.0001224 C231.798237,67.0001224 231.999862,67.1786986 231.999862,67.3989836 L231.999862,68.2685013 C232.002911,68.3725834 231.955348,68.4728137 231.869263,68.5437156 C231.781707,68.6164544 231.664984,68.6552215 231.545016,68.6514081 L230.43267,68.6514081 C230.318923,68.6551328 230.208363,68.6176924 230.126437,68.5477042 L230.126437,68.5477042 Z M230.27505,78.8901776 C230.195143,78.8146138 230.15154,78.7144919 230.153458,78.6109747 L230.153458,70.6816121 C230.142246,70.5730865 230.186079,70.465762 230.273084,70.3887023 C230.36009,70.3116425 230.481267,70.2728211 230.6038,70.2827508 L231.436934,70.2827508 C231.558663,70.2756184 231.677948,70.3153452 231.764211,70.3917474 C231.850475,70.4681496 231.895329,70.5737987 231.887276,70.6816121 L231.887276,78.6109747 C231.887982,78.7150486 231.842731,78.8152449 231.76118,78.8901776 C231.678916,78.9626476 231.566394,79.0016447 231.450444,78.9978702 L230.617311,78.9978702 C230.49067,79.0099349 230.364712,78.9703023 230.27505,78.8901776 L230.27505,78.8901776 Z" id="Shape" fill="url(#linearGradient-12)"></path>
                <path d="M235.087603,77.9604507 C234.3842,77.2101431 233.995986,76.2294652 234.000031,75.2131097 L234.000031,74.4945133 L234.000031,73.779887 C233.997192,72.7607982 234.391779,71.7787356 235.103897,71.0325461 C236.763979,69.655818 239.203466,69.655818 240.863548,71.0325461 C241.576305,71.7780477 241.969749,72.7608928 241.96334,73.779887 C241.98778,74.0207426 242,74.2589513 242,74.4945133 C242,74.7287519 242,74.9669607 241.96334,75.2131097 C241.968498,76.2289318 241.581764,77.2095422 240.879841,77.9604507 C240.104767,78.683696 239.054644,79.0579822 237.983722,78.9926886 C236.720998,78.9926886 235.755625,78.6486093 235.087603,77.9604507 Z M239.71895,77.0671678 C240.179675,76.5228863 240.424029,75.8351658 240.407338,75.1297366 C240.407338,75.0185726 240.407338,74.8041847 240.407338,74.4945133 C240.407338,74.1848419 240.407338,73.9744242 240.407338,73.8632601 C240.424648,73.1565309 240.180279,72.4673582 239.71895,71.9218588 C238.746152,71.0224542 237.221293,71.0224542 236.248495,71.9218588 C235.785701,72.466798 235.539866,73.1560275 235.556033,73.8632601 L235.556033,74.4945133 L235.556033,75.1297366 C235.540484,75.8356691 235.786304,76.5234464 236.248495,77.0671678 C237.221293,77.9665725 238.746152,77.9665725 239.71895,77.0671678 L239.71895,77.0671678 Z" id="Shape" fill="url(#linearGradient-13)"></path>
                <path d="M245.112159,78.8617947 C245.038622,78.7852486 244.998495,78.6838251 245.00026,78.5789621 L245.00026,70.5465149 C244.996338,70.4424848 245.036859,70.3415301 245.112159,70.2677227 C245.190675,70.1960297 245.294707,70.1569092 245.402268,70.1586301 L246.148261,70.1586301 C246.262554,70.1420398 246.378149,70.1792358 246.459858,70.2588948 C246.541566,70.3385538 246.579719,70.4512502 246.562702,70.5626767 L246.562702,71.310163 C246.889937,70.907502 247.300971,70.5770072 247.768724,70.3404511 C248.305127,70.1015288 248.890929,69.9867536 249.480364,70.0050924 C250.461419,69.9506996 251.41459,70.3343005 252.070618,71.0475327 C252.716755,71.8219228 253.045977,72.8020915 252.994821,73.7990903 L252.994821,78.595124 C253.002232,78.704339 252.960953,78.8113615 252.881567,78.888757 C252.80218,78.9661525 252.692404,79.0063957 252.58038,78.9991706 L251.780509,78.9991706 C251.673803,79.0029942 251.570252,78.9634902 251.494545,78.890078 C251.421008,78.8135318 251.380881,78.7121083 251.382646,78.6072454 L251.382646,73.8839401 C251.426215,73.2006493 251.209242,72.5257637 250.773419,71.9889614 C250.327035,71.5195713 249.688056,71.27039 249.032768,71.310163 C248.368694,71.2785238 247.72316,71.5290827 247.263106,71.9970423 C246.796945,72.5169675 246.558824,73.1945537 246.600001,73.8839401 L246.600001,78.5789621 C246.601767,78.6838251 246.56164,78.7852486 246.488102,78.8617947 C246.412396,78.9352069 246.308845,78.9747109 246.202138,78.9708873 L245.402268,78.9708873 C245.294707,78.9726083 245.190675,78.9334878 245.112159,78.8617947 Z" id="Shape" fill="url(#linearGradient-14)"></path>
                <path d="M83.474722,35.2992536 C83.2495328,33.8847527 82.9508547,32.4829272 82.5798998,31.0994652 C81.5303683,27.1795653 79.915642,23.4332738 77.7865099,19.9784254 C77.3369983,19.2476623 76.8622805,18.5252986 76.3665574,17.823934 L76.3665574,17.823934 L76.3665574,17.823934 L76.3665574,17.802935 L76.3329491,17.7567374 L76.2951397,17.7063399 L76.2951397,17.7063399 L76.2951397,17.6811412 C76.2069178,17.5635471 76.1228969,17.4501528 76.0094688,17.2905609 L75.9842625,17.2569625 L75.9842625,17.2569625 L75.9506542,17.2065651 L75.8918396,17.1309689 C75.7322,16.9083801 75.6565812,16.811785 75.5599572,16.6815915 L75.2952915,16.3414087 L75.1860644,16.2028157 L75.1566571,16.1608178 C75.1062446,16.0936212 75.051631,16.0264245 74.9676102,15.9256296 C74.8835893,15.8248347 74.8037695,15.7114404 74.7155476,15.6106455 C74.5517069,15.4048559 74.3962683,15.2158654 74.2282266,15.0184753 L74.0139734,14.7622882 C73.7913181,14.5019013 73.5686629,14.249914 73.2703888,13.9223305 C73.1779659,13.8173358 73.0771409,13.7165409 72.9847179,13.6115462 C72.892295,13.5065515 72.896496,13.5107513 72.8502845,13.4645536 L72.7494595,13.3595589 L72.5562115,13.1495695 L72.1823187,12.7631889 L72.0184781,12.5951974 C72.0184781,12.5699987 71.9722666,12.5489997 71.9470603,12.523801 L71.8756426,12.4482048 L71.5689665,12.1416203 L70.9052017,11.4990526 L70.3002515,10.9404808 L70.3002515,10.9404808 L69.9851733,10.659095 C69.8129305,10.5037028 69.6322857,10.3483106 69.4054294,10.1509206 L69.4054294,10.1509206 L69.1617689,9.94093113 L68.7416646,9.60494806 L68.5400145,9.4453561 L68.4685968,9.38655906 L68.4013801,9.33196181 L68.2711478,9.2269671 C68.1199103,9.10517324 67.9728738,8.98757916 67.8174352,8.86998509 L67.6157851,8.71459292 L67.3931298,8.54240159 C67.2250881,8.41640794 67.0612475,8.29041429 66.8974068,8.17282021 L66.330266,7.75704116 C66.1202139,7.60584877 65.9983836,7.52185301 65.8513471,7.42525787 C65.7043106,7.32866274 65.5278668,7.1984693 65.3766293,7.09767438 L64.8977104,6.78269025 C64.5826322,6.57690061 64.2801571,6.38371035 63.9860841,6.20311945 L63.4735568,5.89653489 C62.7957886,5.49055534 62.0956148,5.09717516 61.3730354,4.71639435 L61.133576,4.59880027 L60.7722863,4.41400958 C59.9740881,4.01642961 59.1660875,3.64264844 58.3482845,3.29266608 L58.0164021,3.12047475 L58.0164021,3.15407306 C56.0669901,2.35166643 54.0603015,1.6960725 52.0131119,1.19277187 L51.6938326,1.12137547 L51.4711773,1.070978 C48.6946939,0.427015522 45.8596892,0.0681722695 43.010277,3.19596537e-05 C42.6993998,3.19596537e-05 42.3717185,3.19596537e-05 41.9978256,3.19596537e-05 C19.2180697,-0.027794979 0.577003675,18.119308 0,40.8849722 L0,40.8849722 C0,41.2209552 0,41.5695377 0,41.9685176 L0,41.9685176 C0,42.9764668 0.0364090383,43.9802162 0.109227115,44.9797659 C0.444043881,49.7611899 1.59938388,54.4493616 3.52467497,58.8390676 C3.61289687,59.0406575 3.70111878,59.2590465 3.79774276,59.4522367 L3.79774276,59.4774355 C4.26405852,60.4937843 4.77238471,61.4849343 5.31852028,62.4592852 C7.90745975,67.0834774 11.3451143,71.1783651 15.4514357,74.5294771 L15.476642,74.5504761 L15.476642,74.5504761 L15.5354566,74.5966737 L15.7161014,74.7394666 L15.7497097,74.7646653 L16.0521848,75.0124528 L16.0521848,75.0124528 L16.0815921,75.0376515 C21.1162098,79.0021416 26.9949768,81.7567214 33.2638575,83.0886459 C33.709168,83.185241 34.1586796,83.2692368 34.6081912,83.3490328 C37.0476457,83.7814509 39.5203199,83.9992735 41.9978256,84 L41.9978256,84 C42.4179299,84 42.8380342,84 43.2581385,84 L43.6362324,84 C43.9597127,84 44.2789919,83.9748013 44.5940701,83.9538023 C45.0603859,83.9244038 45.5267017,83.8866057 45.9888164,83.8446078 C59.7420827,82.5339973 71.9686596,74.5393053 78.6813321,62.4676848 L78.6813321,62.4676848 C78.8619769,62.1401013 79.0426217,61.8125178 79.2148645,61.4807345 C80.4332213,59.1647879 81.4304793,56.7391795 82.1934039,54.2360995 C83.0738073,51.3290949 83.6372206,48.3354473 83.8738211,45.3073494 C83.9578419,44.1860058 83.9998523,43.0814615 83.9998523,41.9853167 C84.0058316,39.7461043 83.8302129,37.5100927 83.474722,35.2992536 Z M66.1160128,24.9677741 L66.1160128,24.9677741 C69.4157428,29.6235502 71.2845872,35.1408332 71.4933477,40.8429743 C71.4933477,41.2629531 71.5185539,41.6283347 71.5185539,41.9853167 C71.5190833,44.5373462 71.1872117,47.0785817 70.5313089,49.5449359 C69.8473103,52.1411508 68.8067596,54.6300945 67.4393413,56.9407633 C64.9942144,61.0952484 61.5741097,64.5921693 57.4744676,67.1294499 C56.7854966,65.7827178 56.0503141,64.4569846 55.2689201,63.1522503 C58.7215082,60.9836689 61.5937812,58.007026 63.6373975,54.4796872 C65.2788258,51.6475505 66.3439092,48.5189102 66.7713755,45.273751 C66.9107638,44.1859524 66.9809223,43.0904036 66.9814276,41.9937163 C66.9888744,36.8602506 65.4069253,31.8502851 62.4527034,27.6514389 L62.1292231,27.23146 L62.0325991,27.0970668 L62.0325991,27.0970668 C58.7735392,22.5286946 56.37344,17.4054579 54.9496408,11.9778285 C54.4283187,10.0223176 54.0381547,8.0341978 53.7817509,6.02672833 C55.4920192,6.49736785 57.1600193,7.10986228 58.7683888,7.85783608 C59.819283,13.8303068 62.1950152,19.4916147 65.7211148,24.4260014 L66.1160128,24.9677741 Z M59.9068714,31.0112696 C61.93813,34.3109455 63.010223,38.1108675 63.00304,41.9853167 C63.0033994,42.9092946 62.9444638,43.8323438 62.8265962,44.7487775 C62.4678909,47.4746431 61.5726454,50.1024818 60.1925424,52.480588 C58.4658332,55.4576875 56.0389372,57.9689118 53.1221872,59.7966194 C52.2651744,58.5422826 51.368952,57.3173443 50.4335197,56.1218045 C54.3606625,53.7809714 57.1372201,49.9129527 58.098172,45.4441875 C59.059124,40.9754222 58.1179154,36.3084218 55.4999775,32.5609915 L55.3403378,32.3384027 L55.2017034,32.1452125 L55.2017034,32.1452125 C52.2413256,28.0199258 49.8675306,23.5041364 48.1481524,18.7268885 C47.1508248,15.947502 46.3795296,13.0921744 45.8417799,10.1887186 C45.4733451,8.23776605 45.2138791,6.26781499 45.0645869,4.28801593 C46.6052472,4.3436022 48.1405611,4.50073549 49.6605279,4.75839223 C49.906661,7.53626608 50.3929986,10.2876091 51.1140887,12.9815779 C52.6609227,18.8716464 55.2659056,24.4315531 58.8019972,29.3901513 L59.1884931,29.9193246 L59.2683129,30.0369187 C59.373339,30.2007104 59.4405557,30.2973056 59.5077724,30.3981005 L59.7472318,30.7634821 C59.7749356,30.7980868 59.8002026,30.8345727 59.8228506,30.8726766 L59.8858662,30.9776713 C59.8858662,30.9776713 59.86066,30.9692717 59.9068714,31.0112696 Z M57.2686165,76.696568 C55.8943068,77.3395273 54.4830822,77.9004829 53.0423674,78.3764833 C52.2807121,76.1744289 51.3870725,74.0202366 50.3663031,71.9256083 C48.9711756,69.0799192 47.3470283,66.3522789 45.5098975,63.7696192 C44.1952826,61.9166082 42.7743481,60.141321 41.2542411,58.4526871 C41.5021026,58.4526871 41.7499641,58.4526871 41.9978256,58.4526871 C43.5764768,58.4544553 45.1470973,58.2281272 46.6609832,57.7807209 C48.1523342,59.617157 49.5421521,61.5337199 50.8242167,63.5218317 C52.3116557,65.8402989 53.64622,68.2533011 54.8194085,70.7454678 C55.7401561,72.6846287 56.5576999,74.6711015 57.2686165,76.696568 L57.2686165,76.696568 Z M46.5937666,53.5977317 C42.4830963,55.2205058 37.8208335,54.5530704 34.3309224,51.8422201 L34.293113,51.8128216 L34.1880869,51.7288258 L34.0452515,51.6154316 L34.0452515,51.6154316 C31.170841,49.2473712 29.5077695,45.7172887 29.5123262,41.9937163 C29.5134652,41.3369201 29.5654332,40.6811963 29.6677648,40.0324151 C30.4706298,34.9685129 34.2865845,30.9089234 39.292354,29.793331 C39.977124,31.1750613 40.758518,32.611389 41.5945255,34.0435168 C37.9039054,34.2206805 34.817303,36.9068722 34.1333335,40.5368027 C33.4493641,44.1667333 35.346827,47.7914864 38.7200387,49.2988575 C42.0932505,50.8062286 46.0604048,49.8021691 48.3097741,46.8717613 C50.5591434,43.9413535 50.50271,39.8506485 48.1733587,36.9833687 C45.9203165,33.7457372 43.9377295,30.3281655 42.2456872,26.7652835 C41.0666507,24.2125771 40.0576034,21.5847866 39.2251373,18.8990798 C38.4148984,16.2608755 37.7764043,13.5729865 37.3136628,10.8522852 C36.9479229,8.73080591 36.694109,6.5915556 36.5532741,4.4434081 C38.0430719,4.19441293 39.547352,4.04150475 41.056792,3.98563116 C41.2080043,6.30962762 41.4998104,8.62234146 41.930609,10.9110823 C42.5039507,14.0335855 43.3315079,17.1040439 44.4050232,20.0918197 C46.2464799,25.2177456 48.7914378,30.0630292 51.9669004,34.4886944 C52.0005087,34.5390919 52.1055348,34.6818847 52.1139369,34.6902842 L52.2315661,34.8582758 L52.2315661,34.8582758 C54.7534406,38.4732514 55.1844243,43.1488263 53.3658477,47.1636558 C52.0197373,50.1018822 49.5906023,52.4069153 46.5853645,53.5977317 L46.5937666,53.5977317 Z M45.0141744,39.4108464 C45.1570099,39.6124363 45.2956443,39.8308253 45.4342787,40.0114162 C46.4855494,41.8559367 45.9005736,44.200792 44.1059995,45.3357778 C42.3114254,46.4707637 39.9413658,45.9948327 38.7244075,44.255102 C37.5074492,42.5153714 37.8736045,40.1265748 39.5558206,38.8309649 C41.2380366,37.5353549 43.6419022,37.7907355 45.0141744,39.4108464 L45.0141744,39.4108464 Z M36.0113395,21.8557309 C36.4986605,23.2920585 37.0349937,24.710187 37.620339,26.1101165 C32.3122209,27.5774911 28.0869645,31.596667 26.357343,36.8237768 C24.9822016,36.1686098 23.5916565,35.5624403 22.1857074,35.0052684 C24.4270402,28.6649302 29.5653628,23.7778795 36.0113395,21.8557309 Z M31.545631,54.7106756 L31.5918424,54.7442739 L31.6842654,54.8198701 L31.843905,54.9458638 L31.8691113,54.9458638 C35.8234154,58.1454535 39.3204148,61.8717405 42.2624913,66.0207058 C43.9698883,68.4386689 45.4814642,70.9890426 46.7828135,73.6475216 C47.668761,75.4509159 48.4514182,77.3032123 49.1269954,79.1954421 C47.7007426,79.5054712 46.2572026,79.7298614 44.8041223,79.8674082 C43.9639137,77.6835182 42.8800447,75.6676198 40.9349618,72.3371876 C37.8405532,67.0529577 33.8155802,62.3718378 29.0544125,58.5198837 L28.9199792,58.4190888 C24.0592562,54.5011902 18.5099359,51.5243953 12.5569172,49.641531 C9.90014823,48.77206 7.16924783,48.14788 4.39849189,47.7768249 L4.37328564,47.6004338 C4.30606895,47.180455 4.25145539,46.7310776 4.20104288,46.2942996 L4.17583662,46.0381125 C4.12542411,45.5845354 4.08341368,45.135158 4.05400638,44.6815809 C4.05400638,44.6521824 4.05400638,44.6227838 4.05400638,44.5975851 C4.02459908,44.1776063 4.00359386,43.7198293 3.99099073,43.2788516 C3.99099073,43.2284541 3.99099073,43.1822564 3.99099073,43.131859 C6.0255626,43.3822349 8.04400944,43.7496255 10.0362914,44.2322035 C12.9058837,44.9183182 15.7156354,45.8340237 18.4383772,46.9704656 C23.1461174,48.9289094 27.5576827,51.5340656 31.545631,54.7106756 L31.545631,54.7106756 Z M18.614821,71.971806 L18.5644085,71.9340079 C18.3417532,71.753417 18.1443042,71.593825 17.9552573,71.4468324 L17.9552573,71.4468324 L17.9552573,71.4468324 C14.7028728,68.767509 11.9605115,65.5237535 9.85984763,61.8713149 C13.9775668,63.3020317 17.8092774,65.4505046 21.1774571,68.2171951 L21.3118905,68.3263896 C25.2314635,71.5182288 28.2604154,74.5756748 30.4449577,77.7465151 C25.8028054,76.3395859 21.7235927,74.3908841 18.614821,71.971806 Z M40.3720221,79.951404 C39.8931032,79.951404 39.4099832,79.9052063 38.9310643,79.8674082 L38.8050331,79.8674082 C38.3471194,79.8296101 37.8934068,79.7834124 37.4396941,79.7288152 L37.1918326,79.6994167 C36.8137387,79.653219 36.4398459,79.594422 36.0659531,79.5356249 C33.6167451,74.4286822 29.5795429,69.926509 23.8157121,65.2311456 C23.7442943,65.1681488 23.6686756,65.1093517 23.5888558,65.0505547 C18.7729868,61.0965799 13.1036058,58.3159334 7.02834473,56.9281639 C6.41726976,55.334174 5.95185378,53.6881336 5.63779954,52.0102117 C7.57651419,52.3619989 9.48947246,52.8432526 11.363821,53.4507391 C16.8518954,55.1916571 21.9677314,57.9389422 26.449766,61.5521309 L26.5337868,61.6193275 C30.9310976,65.1770533 34.6461796,69.5029066 37.4985087,74.3866843 C38.6012229,76.2052671 39.6121398,78.0779184 40.5274606,79.9976016 L40.3720221,79.951404 Z M33.7847868,13.6325451 C34.0872619,15.1192702 34.4401495,16.593396 34.8434496,18.0549223 C27.2028848,20.3417447 21.109893,26.1318681 18.4383772,33.6445369 C16.9960191,33.1713608 15.541058,32.7513819 14.0734936,32.3846004 C17.2104881,23.3064155 24.5596092,16.3149348 33.7847868,13.6325451 Z M11.1285626,35.7528307 C13.8203918,36.3491939 16.4699879,37.1222296 19.0601315,38.0669141 C21.2847119,38.8766544 23.4615489,39.81191 25.5801501,40.868173 C25.5549438,41.2419542 25.5381397,41.6115356 25.5381397,41.9853167 C25.5393842,43.4365676 25.732915,44.8812599 26.1136825,46.2817003 C24.1331913,45.1682145 22.0894134,44.1711712 19.9927631,43.2956507 C17.0682308,42.0723331 14.0489054,41.0891332 10.9647219,40.3557988 C8.69925355,39.8114115 6.40259549,39.4060749 4.08761472,39.14206 C4.23248782,37.6399271 4.46676099,36.1477581 4.78918888,34.6734851 C6.91973886,34.9222017 9.03577095,35.2824786 11.1285626,35.7528307 L11.1285626,35.7528307 Z M32.6126959,5.13637319 C32.721923,6.66509617 32.8857636,8.17282021 33.1084189,9.6973434 C22.3060122,12.681374 13.7059518,20.8582084 10.1833279,31.4942453 C8.66255041,31.1960603 7.16697915,30.9566723 5.65040267,30.7718817 C9.56957054,18.1224267 19.7789357,8.41545316 32.6126959,5.13637319 L32.6126959,5.13637319 Z M60.8689103,74.9872541 C60.356383,73.5509264 59.7934433,72.1439973 59.1884931,70.7328684 C64.0014915,67.846641 68.0173412,63.804562 70.8715933,58.9734608 C73.9000855,53.8226275 75.4955846,47.9558441 75.4927405,41.9811169 C75.4927405,41.5611381 75.4927405,41.1411592 75.4675343,40.6875821 C75.2260232,34.1998347 73.0958361,27.9235705 69.3382127,22.6284919 C69.2205835,22.4647002 69.1365626,22.3555057 68.9559178,22.0993186 L68.9559178,22.0993186 C66.4897756,18.6519195 64.6418186,14.8022112 63.4945621,10.7220918 C65.5283468,12.0875593 67.4211427,13.6519909 69.1449647,15.3922565 L70.8253819,17.1729668 C71.0746438,17.4529527 71.3183042,17.7427381 71.5563633,18.042323 L71.8420343,18.3951052 C72.0898958,18.7100893 72.3377573,19.0292733 72.5772168,19.3568568 L72.6906449,19.5038493 C72.7746658,19.6214434 72.8544856,19.7348377 72.9343054,19.8398324 L72.9679137,19.8860301 L73.0477336,19.9994244 C75.9755852,24.1274701 78.0507418,28.7976767 79.1518489,33.7369323 C79.3114885,34.4592959 79.4515232,35.1886591 79.5719531,35.925022 C79.8961193,37.928801 80.0576857,39.9555029 80.0550731,41.9853167 C80.0550731,42.4850915 80.0550731,42.9848664 80.0256658,43.4846412 C80.0277465,43.5238116 80.0277465,43.5630648 80.0256658,43.6022353 C80.0256658,43.7030302 80.0256658,43.8080249 80.0256658,43.9088198 C80.0256658,44.2700016 79.9920574,44.6353832 79.9626501,45.0007648 L79.9626501,45.0007648 C79.7478583,47.7400248 79.2365428,50.4479202 78.4376716,53.0769579 L78.4376716,53.0769579 C77.7462968,55.3413389 76.8447541,57.5361719 75.7448031,59.6328276 C75.5851635,59.9310126 75.4255238,60.2249978 75.2616832,60.518983 C71.8657493,66.5576521 66.8905097,71.5589897 60.8689103,74.9872541 Z" id="forme" fill="url(#linearGradient-15)"></path>
            </g>
        </g>
    </g>
</svg>