<?xml version="1.0" encoding="UTF-8"?>
<svg width="29px" height="29px" viewBox="0 0 29 29" version="1.1" xmlns="http://www.w3.org/2000/svg" xmlns:xlink="http://www.w3.org/1999/xlink">
    <!-- Generator: Sketch 46.2 (44496) - http://www.bohemiancoding.com/sketch -->
    <title>icon/shop</title>
    <desc>Created with Sketch.</desc>
    <defs></defs>
    <g id="Symbols" stroke="none" stroke-width="1" fill="none" fill-rule="evenodd">
        <g id="icon/shop" fill-rule="nonzero" fill="#282A34">
            <g id="shopping-cart">
                <path d="M8.7,23.2 C7.105,23.2 5.8,24.505 5.8,26.1 C5.8,27.695 7.105,29 8.7,29 C10.295,29 11.6,27.695 11.6,26.1 C11.6,24.505 10.295,23.2 8.7,23.2 Z M0,0 L0,2.9 L2.9,2.9 L8.12,13.92 L6.09,17.4 C5.945,17.835 5.8,18.415 5.8,18.85 C5.8,20.445 7.105,21.75 8.7,21.75 L26.1,21.75 L26.1,18.85 L9.28,18.85 C9.135,18.85 8.99,18.705 8.99,18.56 L8.99,18.4149431 L10.295,15.9499431 L21.025,15.9499431 C22.185,15.9499431 23.055,15.3699431 23.49,14.4999431 L28.71,5.075 C29,4.785 29,4.64 29,4.35 C29,3.48 28.42,2.9 27.55,2.9 L6.09,2.9 L4.785,0 L0,0 Z M23.2,23.2 C21.605,23.2 20.3,24.505 20.3,26.1 C20.3,27.695 21.605,29 23.2,29 C24.795,29 26.1,27.695 26.1,26.1 C26.1,24.505 24.795,23.2 23.2,23.2 Z" id="Shape"></path>
            </g>
        </g>
    </g>
</svg>