<svg width="24" height="24" xmlns="http://www.w3.org/2000/svg"><path d="M7.02 18.721a2.347 2.347 0 0 0-2.34 2.34 2.347 2.347 0 0 0 2.34 2.34 2.347 2.347 0 0 0 2.34-2.34 2.347 2.347 0 0 0-2.34-2.34zM0 0v2.34h2.34l4.212 8.893-1.638 2.808c-.117.35-.234.819-.234 1.17a2.347 2.347 0 0 0 2.34 2.34h14.041v-2.34H7.488a.252.252 0 0 1-.234-.234v-.117l1.053-1.99h8.659c.936 0 1.638-.467 1.99-1.17l4.211-7.605c.234-.234.234-.35.234-.585 0-.702-.468-1.17-1.17-1.17H4.914L3.861 0H0zm18.721 18.721a2.347 2.347 0 0 0-2.34 2.34 2.347 2.347 0 0 0 2.34 2.34 2.347 2.347 0 0 0 2.34-2.34 2.347 2.347 0 0 0-2.34-2.34z" fill-rule="nonzero" fill="#1D1D1C"/></svg>